<svg xmlns="http://www.w3.org/2000/svg" xmlns:xlink="http://www.w3.org/1999/xlink" width="500" zoomAndPan="magnify" viewBox="0 0 375 374.999991" height="500" preserveAspectRatio="xMidYMid meet" version="1.0"><defs><g/><clipPath id="a870bd44ef"><path d="M 86.746094 57.105469 L 182.746094 57.105469 L 182.746094 155 L 86.746094 155 Z M 86.746094 57.105469 " clip-rule="nonzero"/></clipPath><clipPath id="e7de4c11cb"><path d="M 192.726562 56.765625 L 271 56.765625 L 271 155 L 192.726562 155 Z M 192.726562 56.765625 " clip-rule="nonzero"/></clipPath><clipPath id="721ca9a820"><path d="M 245 112 L 287.960938 112 L 287.960938 155 L 245 155 Z M 245 112 " clip-rule="nonzero"/></clipPath><clipPath id="95aa1796b5"><path d="M 107.238281 166.273438 L 182.988281 166.273438 L 182.988281 246.523438 L 107.238281 246.523438 Z M 107.238281 166.273438 " clip-rule="nonzero"/></clipPath><clipPath id="0a7bf129cd"><path d="M 192.726562 166.296875 L 221 166.296875 L 221 239 L 192.726562 239 Z M 192.726562 166.296875 " clip-rule="nonzero"/></clipPath><clipPath id="c5dc181573"><path d="M 205 166.296875 L 254 166.296875 L 254 246.546875 L 205 246.546875 Z M 205 166.296875 " clip-rule="nonzero"/></clipPath><clipPath id="7c6d286eec"><path d="M 248 166.296875 L 266.976562 166.296875 L 266.976562 246.546875 L 248 246.546875 Z M 248 166.296875 " clip-rule="nonzero"/></clipPath><clipPath id="c7584fd78a"><path d="M 246 234 L 259 234 L 259 246.546875 L 246 246.546875 Z M 246 234 " clip-rule="nonzero"/></clipPath></defs><rect x="-37.5" width="450" fill="#ffffff" y="-37.499999" height="449.999989" fill-opacity="1"/><rect x="-37.5" width="450" fill="#ffffff" y="-37.499999" height="449.999989" fill-opacity="1"/><path fill="#51c7f4" d="M 127.574219 103.769531 C 133.71875 104.707031 138.761719 109.34375 143.644531 112.964844 C 138.84375 112.761719 134.042969 113.046875 129.285156 113.453125 C 127.25 111.660156 125.539062 109.34375 124.890625 106.699219 C 124.441406 105.03125 125.867188 103.527344 127.574219 103.769531 Z M 127.574219 103.769531 " fill-opacity="1" fill-rule="nonzero"/><path fill="#51c7f4" d="M 166.34375 119.675781 C 164.554688 121.832031 161.871094 123.175781 158.859375 123.175781 C 154.507812 123.175781 150.765625 120.285156 149.542969 116.300781 C 143.644531 115.609375 137.625 115.445312 131.683594 115.894531 C 134.082031 118.617188 136.933594 120.855469 139.78125 123.09375 C 139.78125 123.09375 138.925781 125.210938 138.84375 125.414062 C 138.601562 126.265625 138.4375 127.121094 138.476562 128.015625 C 138.519531 129.804688 139.167969 131.515625 140.835938 132.371094 C 143.605469 133.792969 147.550781 133.222656 149.097656 130.292969 C 150.113281 128.34375 149.300781 126.226562 148.972656 124.191406 C 155.808594 123.582031 163.945312 126.0625 169.640625 121.222656 C 168.828125 120.816406 167.199219 120.082031 166.34375 119.675781 Z M 143.886719 130.292969 C 142.464844 130.292969 141.367188 129.15625 141.367188 127.773438 C 141.367188 126.390625 142.503906 125.25 143.886719 125.25 C 145.273438 125.25 146.410156 126.390625 146.410156 127.773438 C 146.410156 129.15625 145.3125 130.292969 143.886719 130.292969 Z M 143.886719 130.292969 " fill-opacity="1" fill-rule="nonzero"/><g clip-path="url(#a870bd44ef)"><path fill="#51c7f4" d="M 182.699219 57.390625 C 181.03125 58.328125 179.363281 59.261719 177.777344 60.320312 C 162.480469 70.777344 147.144531 81.191406 131.804688 91.605469 C 116.835938 101.777344 101.824219 111.945312 86.808594 122.117188 C 86.851562 128.136719 86.851562 134.199219 86.808594 140.222656 C 93.6875 140.222656 100.5625 140.179688 107.4375 140.304688 C 107.4375 141.929688 107.4375 143.558594 107.394531 145.183594 C 107.394531 148.4375 107.394531 151.734375 107.476562 154.988281 C 111.667969 154.90625 115.859375 154.90625 120.089844 154.949219 C 119.84375 142.988281 119.4375 130.988281 119.316406 119.027344 C 118.625 115.363281 123.628906 115.691406 124.972656 113.453125 C 123.425781 110.6875 121.796875 107.878906 121.59375 104.746094 C 121.472656 103.199219 122.285156 101.695312 123.667969 101.003906 C 125.09375 100.269531 127.332031 99.90625 130.503906 101.449219 C 137.664062 103.808594 143.15625 109.382812 149.136719 113.777344 C 149.136719 113.65625 149.136719 113.535156 149.136719 113.410156 C 149.136719 108.042969 153.488281 103.6875 158.859375 103.6875 C 164.230469 103.6875 168.582031 108.042969 168.582031 113.410156 C 168.582031 114.792969 168.296875 116.097656 167.769531 117.316406 C 169.601562 118.253906 171.554688 119.027344 172.976562 120.53125 C 173.789062 121.996094 173.140625 123.746094 173.015625 125.289062 C 171.105469 135.136719 169.4375 145.0625 167.523438 154.90625 C 172.527344 154.90625 177.574219 154.90625 182.617188 154.949219 C 182.902344 122.441406 182.742188 89.898438 182.699219 57.390625 Z M 151.617188 101.898438 C 148.527344 101.898438 146.042969 99.417969 146.042969 96.324219 C 146.042969 93.273438 148.527344 90.75 151.617188 90.75 C 154.667969 90.75 157.191406 93.234375 157.191406 96.324219 C 157.191406 99.417969 154.710938 101.898438 151.617188 101.898438 Z M 165.855469 90.179688 C 163.171875 90.179688 160.976562 87.984375 160.976562 85.300781 C 160.976562 82.613281 163.171875 80.417969 165.855469 80.417969 C 168.542969 80.417969 170.738281 82.613281 170.738281 85.300781 C 170.738281 87.984375 168.582031 90.179688 165.855469 90.179688 Z M 165.855469 90.179688 " fill-opacity="1" fill-rule="nonzero"/></g><g clip-path="url(#e7de4c11cb)"><path fill="#fab60a" d="M 192.21875 63.601562 C 192.21875 61.324219 192.382812 59.046875 192.585938 56.765625 C 209.46875 68.320312 226.472656 79.710938 243.355469 91.308594 C 250.3125 96.027344 257.269531 100.746094 264.269531 105.464844 C 258.613281 108.433594 252.59375 110.429688 246.652344 112.789062 C 230.054688 119.378906 213.332031 125.5625 196.855469 132.476562 C 197.222656 133.210938 197.914062 134.59375 198.28125 135.324219 C 216.140625 128.125 234.164062 121.289062 252.144531 114.292969 C 258.207031 112.257812 263.902344 108.839844 270.328125 108.109375 C 267.847656 111.402344 263.578125 112.136719 259.996094 113.640625 C 247.914062 118.402344 235.789062 122.875 223.789062 127.839844 C 215.488281 130.933594 207.230469 134.1875 199.011719 137.480469 C 199.339844 138.375 199.988281 140.125 200.355469 140.980469 C 203.773438 140.042969 207.027344 138.132812 210.648438 137.96875 C 219.558594 139.433594 228.832031 136.992188 237.5 140.328125 C 237.375 142.324219 237.253906 144.277344 237.171875 146.269531 C 238.515625 146.390625 239.859375 146.511719 241.199219 146.636719 C 242.300781 149.28125 243.398438 151.925781 244.457031 154.570312 C 227.082031 154.609375 209.671875 154.691406 192.300781 154.570312 C 192.179688 124.179688 192.179688 93.871094 192.21875 63.601562 Z M 208.449219 80.769531 C 207.800781 83.171875 207.148438 85.570312 206.214844 87.890625 C 204.625 88.417969 203.039062 88.988281 201.453125 89.558594 C 203.203125 90.207031 204.953125 90.859375 206.742188 91.46875 C 207.230469 93.667969 207.800781 95.863281 208.449219 98.058594 C 209.019531 95.824219 209.425781 93.585938 209.835938 91.347656 C 212.03125 90.574219 214.269531 89.882812 216.546875 89.433594 C 214.351562 89.027344 212.195312 88.417969 210.039062 87.847656 C 209.46875 85.488281 208.980469 83.128906 208.449219 80.769531 Z M 228.261719 100.214844 C 225.742188 101.070312 223.179688 101.84375 220.65625 102.65625 C 223.097656 103.347656 225.578125 103.960938 228.058594 104.488281 C 228.996094 107.660156 229.808594 110.875 230.785156 114.007812 C 231.558594 110.792969 232.292969 107.621094 233.347656 104.488281 C 235.871094 103.960938 238.394531 103.390625 240.875 102.65625 C 238.3125 101.804688 235.707031 101.03125 233.144531 100.214844 C 232.25 97.246094 231.558594 94.234375 230.785156 91.265625 C 229.808594 94.234375 229.078125 97.246094 228.261719 100.214844 Z M 228.261719 100.214844 " fill-opacity="1" fill-rule="nonzero"/></g><g clip-path="url(#721ca9a820)"><path fill="#fab60a" d="M 263.859375 116.53125 C 267.195312 115.1875 270.574219 113.765625 273.828125 112.175781 C 274.277344 112.460938 275.210938 112.992188 275.660156 113.277344 C 279.890625 116 284 118.929688 288.1875 121.738281 C 288.1875 127.757812 288.1875 133.820312 288.1875 139.839844 C 281.3125 139.882812 274.480469 139.761719 267.605469 139.921875 C 267.5625 144.113281 267.644531 148.261719 267.726562 152.453125 C 267.683594 152.980469 267.5625 154.039062 267.480469 154.570312 C 261.867188 154.570312 256.210938 154.648438 250.597656 154.40625 C 249.460938 151.191406 247.914062 148.101562 247.179688 144.765625 C 247.75 143.300781 248.6875 141.957031 249.460938 140.574219 C 248.035156 139.558594 246.652344 138.539062 245.226562 137.523438 C 246.285156 135.527344 247.382812 133.578125 248.6875 131.746094 C 253.363281 126.292969 260.078125 122.796875 263.859375 116.53125 Z M 263.859375 116.53125 " fill-opacity="1" fill-rule="nonzero"/></g><path fill="#4ac199" d="M 150.03125 181.113281 C 152.433594 182.046875 155.726562 182.046875 157.152344 184.53125 C 157.234375 187.785156 153.328125 188.679688 151.210938 190.265625 C 150.722656 187.214844 150.316406 184.164062 150.03125 181.113281 Z M 150.03125 181.113281 " fill-opacity="1" fill-rule="nonzero"/><g clip-path="url(#95aa1796b5)"><path fill="#4ac199" d="M 182.742188 181.355469 C 175.214844 182.171875 167.730469 183.148438 160.203125 183.878906 C 167.6875 181.03125 175.296875 178.507812 182.820312 175.742188 C 182.78125 174.277344 182.742188 172.8125 182.699219 171.347656 C 175.214844 174.765625 167.808594 178.507812 160.160156 181.683594 C 167.160156 176.191406 174.523438 171.144531 181.5625 165.652344 C 156.867188 165.613281 132.132812 165.652344 107.4375 165.652344 C 107.394531 175.90625 107.4375 186.15625 107.4375 196.410156 C 109.714844 193.398438 112.113281 190.265625 115.167969 187.988281 C 116.792969 186.929688 120.089844 185.304688 125.703125 184.691406 C 133.1875 183.714844 140.675781 182.617188 148.199219 181.722656 C 148.527344 184.570312 148.890625 187.378906 149.257812 190.183594 C 147.46875 190.46875 145.636719 190.753906 143.847656 191.039062 C 145.394531 194.902344 147.0625 198.890625 149.992188 201.941406 C 152.066406 204.261719 155.28125 205.605469 156.132812 208.816406 C 146.492188 208.125 139.210938 200.476562 135.914062 191.894531 C 133.390625 197.304688 133.878906 203.449219 133.109375 209.222656 C 128.714844 209.875 124.320312 210.445312 119.925781 211.015625 C 118.828125 208.695312 117.730469 206.335938 116.632812 204.015625 C 113.621094 204.425781 110.488281 204.503906 107.597656 205.480469 C 107.234375 215.734375 107.679688 225.984375 107.355469 236.238281 C 107.476562 239.65625 107.476562 243.03125 107.476562 246.449219 C 109.714844 246.449219 111.910156 246.449219 114.148438 246.488281 C 114.679688 239.453125 115.65625 232.25 119.316406 226.109375 C 115.613281 224.441406 116.144531 219.597656 117.121094 216.425781 C 118.828125 212.316406 123.667969 212.113281 127.453125 211.585938 C 130.464844 211.378906 133.960938 210.242188 136.648438 212.277344 C 139.738281 214.351562 139.902344 218.378906 140.632812 221.671875 C 139.820312 222.203125 139.007812 222.730469 138.234375 223.261719 C 144.824219 229.363281 147.671875 238.191406 150.277344 246.53125 C 161.136719 246.449219 172 246.652344 182.863281 246.449219 C 182.863281 228.019531 182.820312 209.589844 182.863281 191.160156 C 175.335938 189.332031 167.808594 187.378906 160.242188 185.75 C 167.769531 185.425781 175.335938 185.261719 182.863281 185.222656 C 182.78125 183.917969 182.742188 182.617188 182.742188 181.355469 Z M 151.210938 190.265625 C 150.722656 187.214844 150.316406 184.164062 150.03125 181.113281 C 152.433594 182.046875 155.726562 182.046875 157.152344 184.53125 C 157.191406 187.785156 153.285156 188.679688 151.210938 190.265625 Z M 151.210938 190.265625 " fill-opacity="1" fill-rule="nonzero"/></g><g clip-path="url(#0a7bf129cd)"><path fill="#f02e2c" d="M 191.972656 165.734375 C 201.332031 165.53125 210.730469 165.53125 220.085938 165.695312 C 218.867188 167.238281 217.605469 168.746094 216.464844 170.332031 C 215.203125 172.652344 214.226562 175.132812 213.292969 177.574219 C 212.761719 177.777344 211.707031 178.144531 211.21875 178.347656 C 211.257812 181.683594 211.503906 185.058594 210.851562 188.355469 C 208.042969 201.941406 205.238281 215.570312 202.550781 229.199219 C 201.902344 232.496094 200.394531 235.546875 198.929688 238.558594 C 196.570312 238.476562 194.171875 238.351562 191.8125 238.273438 C 192.300781 214.066406 191.933594 189.898438 191.972656 165.734375 Z M 191.972656 165.734375 " fill-opacity="1" fill-rule="nonzero"/></g><g clip-path="url(#c5dc181573)"><path fill="#f02e2c" d="M 219.84375 171.023438 C 221.875 168.785156 223.949219 165.53125 227.367188 165.613281 C 232.777344 165.449219 238.191406 165.695312 243.601562 165.570312 C 245.59375 167.28125 247.585938 169.03125 249.335938 170.984375 C 253 176.433594 253.933594 183.105469 253.527344 189.535156 C 253.121094 189.898438 252.308594 190.632812 251.898438 191.039062 C 251.859375 191.730469 251.820312 193.113281 251.777344 193.847656 C 251.128906 193.886719 249.824219 193.96875 249.175781 194.007812 C 248.441406 195.960938 247.914062 198.035156 246.816406 199.828125 C 243.761719 202.511719 240.019531 204.34375 237.417969 207.515625 C 229.078125 216.832031 226.230469 229.6875 225.089844 241.8125 C 224.03125 241.972656 222.976562 242.136719 221.917969 242.300781 C 221.671875 243.683594 221.386719 245.027344 221.144531 246.410156 C 219.964844 246.367188 218.785156 246.328125 217.605469 246.164062 C 217.402344 245.796875 217.035156 245.027344 216.832031 244.660156 C 216.097656 243.195312 215.367188 241.730469 214.632812 240.304688 C 211.746094 239.941406 208.859375 239.613281 205.96875 239.328125 C 205.929688 236.074219 205.644531 232.78125 206.417969 229.605469 C 209.304688 215.734375 212.070312 201.820312 214.960938 187.949219 C 215.40625 184.203125 219.152344 180.828125 217.238281 176.964844 C 217.96875 174.929688 218.824219 172.933594 219.84375 171.023438 Z M 219.84375 171.023438 " fill-opacity="1" fill-rule="nonzero"/></g><g clip-path="url(#7c6d286eec)"><path fill="#f02e2c" d="M 248.972656 165.695312 C 255.074219 165.734375 261.257812 165.164062 267.320312 166.019531 C 267.523438 192.789062 267.320312 219.558594 267.398438 246.328125 C 265.894531 246.367188 264.390625 246.367188 262.882812 246.410156 C 263.046875 245.796875 263.332031 244.539062 263.453125 243.886719 C 265.203125 238.3125 262.355469 232.859375 257.757812 229.730469 C 258.980469 218.132812 259.589844 206.5 260.523438 194.902344 C 259.875 194.824219 258.613281 194.660156 258.003906 194.578125 C 256.539062 186.074219 257.636719 176.554688 252.0625 169.273438 C 251.085938 168.054688 250.027344 166.875 248.972656 165.695312 Z M 248.972656 165.695312 " fill-opacity="1" fill-rule="nonzero"/></g><g clip-path="url(#c7584fd78a)"><path fill="#f02e2c" d="M 258.492188 240.429688 C 258.492188 240.816406 258.453125 241.199219 258.378906 241.578125 C 258.300781 241.960938 258.191406 242.328125 258.042969 242.6875 C 257.894531 243.042969 257.710938 243.382812 257.496094 243.707031 C 257.28125 244.027344 257.035156 244.324219 256.761719 244.597656 C 256.488281 244.875 256.191406 245.117188 255.867188 245.332031 C 255.546875 245.546875 255.207031 245.730469 254.847656 245.878906 C 254.492188 246.027344 254.121094 246.136719 253.742188 246.214844 C 253.363281 246.289062 252.980469 246.328125 252.589844 246.328125 C 252.203125 246.328125 251.820312 246.289062 251.441406 246.214844 C 251.0625 246.136719 250.691406 246.027344 250.335938 245.878906 C 249.976562 245.730469 249.636719 245.546875 249.3125 245.332031 C 248.992188 245.117188 248.695312 244.875 248.421875 244.597656 C 248.148438 244.324219 247.902344 244.027344 247.6875 243.707031 C 247.472656 243.382812 247.289062 243.042969 247.140625 242.6875 C 246.992188 242.328125 246.882812 241.960938 246.804688 241.578125 C 246.730469 241.199219 246.691406 240.816406 246.691406 240.429688 C 246.691406 240.039062 246.730469 239.65625 246.804688 239.277344 C 246.882812 238.898438 246.992188 238.527344 247.140625 238.171875 C 247.289062 237.8125 247.472656 237.472656 247.6875 237.152344 C 247.902344 236.828125 248.148438 236.53125 248.421875 236.257812 C 248.695312 235.984375 248.992188 235.738281 249.3125 235.523438 C 249.636719 235.308594 249.976562 235.125 250.335938 234.976562 C 250.691406 234.832031 251.0625 234.71875 251.441406 234.644531 C 251.820312 234.566406 252.203125 234.53125 252.589844 234.53125 C 252.980469 234.53125 253.363281 234.566406 253.742188 234.644531 C 254.121094 234.71875 254.492188 234.832031 254.847656 234.976562 C 255.207031 235.125 255.546875 235.308594 255.867188 235.523438 C 256.191406 235.738281 256.488281 235.984375 256.761719 236.257812 C 257.035156 236.53125 257.28125 236.828125 257.496094 237.152344 C 257.710938 237.472656 257.894531 237.8125 258.042969 238.171875 C 258.191406 238.527344 258.300781 238.898438 258.378906 239.277344 C 258.453125 239.65625 258.492188 240.039062 258.492188 240.429688 Z M 258.492188 240.429688 " fill-opacity="1" fill-rule="nonzero"/></g><g fill="#2b8eb4" fill-opacity="1"><g transform="translate(41.876499, 305.712566)"><g><path d="M 10.765625 -1.890625 L 10.1875 -1.8125 L 9.59375 -1.828125 L 8.9375 -1.921875 L 8.359375 -1.9375 L 6.859375 -2.234375 L 5.390625 -2.6875 L 3.78125 -3.609375 L 2.234375 -4.703125 L 0.375 -7.109375 L -0.421875 -8.78125 L -1.046875 -11 L -1.265625 -13.71875 L -1.203125 -15.03125 L -0.78125 -16.921875 L -0.390625 -17.921875 L 0.234375 -19.15625 L 1.3125 -20.609375 L 2.078125 -21.453125 L 4.140625 -23.015625 L 7.015625 -24.1875 L 8.9375 -24.546875 L 9.5625 -24.5625 L 10.15625 -24.65625 L 13.3125 -24.265625 L 15.671875 -23.359375 L 16.703125 -22.640625 L 17.171875 -22.109375 L 17.71875 -21.6875 L 18.09375 -21.234375 L 18.515625 -20.8125 L 18.828125 -20.21875 L 19.171875 -19.703125 L 19.484375 -19.046875 L 19.390625 -18.390625 L 18.90625 -18.046875 L 18.015625 -17.765625 L 17.125 -17.703125 L 16.53125 -17.546875 L 15.859375 -17.4375 L 15.3125 -17.265625 L 14.546875 -17.453125 L 13.84375 -17.921875 L 13.421875 -18.3125 L 12.34375 -19.046875 L 11.84375 -19.28125 L 11.25 -19.390625 L 10.234375 -19.484375 L 8.890625 -19.28125 L 6.890625 -18.59375 L 6.140625 -17.96875 L 5.515625 -17.21875 L 4.96875 -16.203125 L 4.765625 -15.5625 L 4.53125 -14.375 L 4.546875 -13.078125 L 4.921875 -11.21875 L 5.15625 -10.53125 L 5.4375 -10.03125 L 5.734375 -9.640625 L 6.0625 -9.0625 L 6.96875 -8.125 L 8 -7.5 L 9.203125 -7.171875 L 10.40625 -6.984375 L 11.296875 -7.078125 L 12.921875 -7.5 L 13.875 -8.28125 L 14.3125 -8.5625 L 14.71875 -9.09375 L 15.265625 -10.03125 L 15.453125 -10.703125 L 15.84375 -11.28125 L 16.46875 -11.796875 L 17.109375 -11.890625 L 17.703125 -12.046875 L 18.359375 -12.078125 L 20.046875 -12.546875 L 20.75 -12.265625 L 21.03125 -11.75 L 20.703125 -9.25 L 20.296875 -8 L 19.75 -6.921875 L 19.0625 -5.890625 L 17.765625 -4.515625 L 17.296875 -4.15625 L 16.703125 -3.8125 L 16.203125 -3.40625 L 14.46875 -2.671875 L 12.328125 -2.078125 Z M 10.765625 -1.890625 "/></g></g></g><g fill="#2b8eb4" fill-opacity="1"><g transform="translate(66.595292, 300.845355)"><g><path d="M 2.171875 -1.5 L 0.203125 -13.140625 L 0.046875 -13.703125 L -0.09375 -14.390625 L -0.1875 -15.546875 L -0.359375 -16.15625 L -0.390625 -16.765625 L -1.109375 -21.09375 L -0.953125 -21.828125 L -0.34375 -22.1875 L 0.234375 -22.375 L 1.5 -22.453125 L 2.09375 -22.6875 L 3.296875 -22.875 L 3.984375 -22.609375 L 4.40625 -21.96875 L 4.46875 -21.375 L 4.859375 -19.640625 L 5 -18.375 L 5.1875 -17.65625 L 6.90625 -7.140625 L 7.265625 -6.546875 L 7.90625 -6.421875 L 8.5625 -6.59375 L 9.78125 -6.734375 L 10.3125 -6.921875 L 10.96875 -6.890625 L 12.234375 -7.140625 L 12.890625 -7.15625 L 13.453125 -7.375 L 14.09375 -7.546875 L 14.71875 -7.265625 L 15.15625 -6.375 L 15.609375 -3.859375 L 15.40625 -2.84375 L 14.875 -2.4375 L 8.734375 -1.453125 L 8.078125 -1.28125 L 7.46875 -1.28125 L 6.28125 -1.015625 L 5.09375 -0.875 L 3.796875 -0.5625 L 3.15625 -0.53125 L 2.53125 -0.734375 Z M 2.171875 -1.5 "/></g></g></g><g fill="#2b8eb4" fill-opacity="1"><g transform="translate(84.524734, 297.876101)"><g><path d="M 10.859375 -1.390625 L 10.21875 -1.375 L 9.59375 -1.21875 L 8.890625 -1.15625 L 8.265625 -1.203125 L 7 -0.921875 L 6.4375 -0.890625 L 5.78125 -0.734375 L 3.515625 -0.453125 L 2.53125 -0.734375 L 2.171875 -1.53125 L 2.015625 -2.21875 L 1.828125 -4.375 L 1.640625 -4.984375 L 1.625 -5.59375 L 0.953125 -10.640625 L 0.796875 -11.171875 L 0.46875 -13.734375 L 0.453125 -14.34375 L 0.265625 -14.96875 L -0.078125 -18.03125 L -0.28125 -18.71875 L -0.359375 -20 L -0.578125 -21.171875 L -0.34375 -21.875 L 0.28125 -22.21875 L 0.90625 -22.265625 L 1.53125 -22.421875 L 2.09375 -22.4375 L 2.671875 -22.640625 L 3.296875 -22.625 L 5.84375 -23.046875 L 6.46875 -23.0625 L 7.015625 -23.171875 L 7.640625 -23.1875 L 8.3125 -23.34375 L 10.828125 -23.71875 L 11.390625 -23.671875 L 12.046875 -23.765625 L 12.734375 -23.609375 L 13.078125 -23.046875 L 13.390625 -21.203125 L 13.453125 -20.546875 L 13.5625 -19.9375 L 13.34375 -19.34375 L 12.71875 -18.875 L 12.140625 -18.765625 L 7.6875 -18.21875 L 7.09375 -18 L 6.515625 -17.953125 L 5.859375 -17.609375 L 5.65625 -16.984375 L 5.796875 -16.015625 L 6.171875 -15.09375 L 6.875 -14.90625 L 8.671875 -15.21875 L 9.984375 -15.296875 L 10.625 -15.453125 L 12.453125 -15.703125 L 13.234375 -15.390625 L 13.671875 -14.5625 L 13.953125 -11.734375 L 13.828125 -11.09375 L 13.234375 -10.765625 L 12.53125 -10.703125 L 11.90625 -10.546875 L 10.625 -10.40625 L 9.453125 -10.171875 L 8.4375 -10.140625 L 7.515625 -9.984375 L 7 -9.5625 L 6.8125 -8.859375 L 7.078125 -6.90625 L 7.40625 -6.375 L 8.109375 -6.15625 L 8.765625 -6.3125 L 9.390625 -6.296875 L 10.078125 -6.421875 L 10.6875 -6.453125 L 11.703125 -6.71875 L 13.296875 -6.90625 L 13.890625 -6.890625 L 14.609375 -7.046875 L 15.296875 -6.859375 L 15.734375 -6.28125 L 16.15625 -3.125 L 15.90625 -2.4375 L 15.28125 -2.0625 Z M 10.859375 -1.390625 "/></g></g></g><g fill="#2b8eb4" fill-opacity="1"><g transform="translate(103.57195, 295.243961)"><g><path d="M 18.4375 -1.859375 L 17.78125 -1.84375 L 17.03125 -2.078125 L 16.359375 -2.484375 L 16.109375 -3.03125 L 15.765625 -3.59375 L 15.125 -4.03125 L 14.40625 -4.3125 L 13.71875 -4.140625 L 13.15625 -4.140625 L 10.09375 -3.796875 L 9.515625 -3.828125 L 8.21875 -3.578125 L 7.625 -3.609375 L 7 -3.1875 L 6.46875 -2.53125 L 6.015625 -1.453125 L 5.46875 -0.828125 L 4.78125 -0.53125 L 3.03125 -0.28125 L 2.40625 -0.28125 L 1.1875 -0.09375 L 0.546875 -0.21875 L 0.3125 -0.984375 L 0.4375 -1.625 L 0.921875 -2.9375 L 1.03125 -3.515625 L 1.328125 -3.984375 L 1.65625 -5.296875 L 2.125 -6.34375 L 2.28125 -7 L 2.53125 -7.515625 L 2.65625 -8.203125 L 5.140625 -15.21875 L 5.28125 -15.796875 L 5.578125 -16.453125 L 5.640625 -17.078125 L 5.9375 -17.578125 L 6.890625 -20.578125 L 7.125 -21.046875 L 7.28125 -21.703125 L 7.515625 -22.265625 L 8.015625 -22.84375 L 8.984375 -23.296875 L 10.046875 -23.09375 L 10.65625 -22.578125 L 11.34375 -21.546875 L 11.59375 -21.015625 L 11.984375 -20.484375 L 12.25 -19.875 L 14.75 -15.75 L 15.046875 -15.109375 L 15.828125 -14.03125 L 16.0625 -13.546875 L 16.390625 -13.109375 L 16.65625 -12.4375 L 17.015625 -11.890625 L 17.390625 -11.4375 L 18.875 -8.71875 L 19.609375 -7.65625 L 20.171875 -6.546875 L 21.203125 -5.015625 L 21.765625 -3.90625 L 22.0625 -3.203125 L 22.046875 -2.453125 L 21.1875 -2.203125 L 20.21875 -2.0625 L 19.625 -2.078125 Z M 10.546875 -8.890625 L 11.78125 -9.0625 L 12.234375 -9.359375 L 12.296875 -9.9375 L 10.46875 -13.21875 L 10.015625 -13.421875 L 9.6875 -13.109375 L 8.578125 -9.578125 L 8.671875 -8.984375 L 9.203125 -8.828125 L 9.90625 -8.953125 Z M 10.546875 -8.890625 "/></g></g></g><g fill="#2b8eb4" fill-opacity="1"><g transform="translate(127.434433, 292.778241)"><g><path d="M 18.453125 -1.765625 L 17.953125 -2.140625 L 17.09375 -3 L 11.90625 -7.5 L 11.34375 -7.796875 L 10.90625 -8.265625 L 8.546875 -10.234375 L 8.109375 -10.75 L 7.6875 -10.890625 L 7.5 -10.328125 L 7.484375 -9.6875 L 7.984375 -1.75 L 7.734375 -0.765625 L 7.109375 -0.40625 L 6.453125 -0.34375 L 5.234375 -0.34375 L 4.546875 -0.234375 L 3.265625 -0.21875 L 2.59375 -0.390625 L 2.28125 -0.96875 L 2.03125 -3.609375 L 2.0625 -4.1875 L 1.65625 -9.34375 L 1.71875 -9.875 L 1.5625 -11.15625 L 1.5625 -11.6875 L 0.921875 -21.1875 L 1.171875 -21.8125 L 1.859375 -22.171875 L 2.796875 -22.015625 L 3.5625 -21.671875 L 4.0625 -21.328125 L 10.640625 -15.515625 L 11.5625 -14.875 L 13.953125 -12.796875 L 14.4375 -12.609375 L 14.578125 -13.15625 L 14.265625 -18.765625 L 14.15625 -19.453125 L 14.171875 -20.78125 L 14.046875 -21.28125 L 14.03125 -21.9375 L 14.34375 -22.625 L 14.921875 -23.015625 L 18.78125 -23.296875 L 19.4375 -23 L 19.796875 -22.375 L 20.171875 -18.046875 L 20.125 -17.28125 L 20.34375 -14.15625 L 20.46875 -13.640625 L 21.171875 -2.1875 L 20.890625 -1.546875 L 20.21875 -1.28125 L 19.34375 -1.3125 Z M 18.453125 -1.765625 "/></g></g></g><g fill="#2b8eb4" fill-opacity="1"><g transform="translate(152.363682, 291.234885)"><g/></g></g><g fill="#2b8eb4" fill-opacity="1"><g transform="translate(162.16038, 290.755639)"><g><path d="M 10.9375 0.09375 L 10.34375 0.078125 L 9.765625 -0.03125 L 9.140625 -0.25 L 8.578125 -0.359375 L 7.15625 -0.9375 L 5.796875 -1.65625 L 4.375 -2.859375 L 3.046875 -4.21875 L 1.671875 -6.9375 L 1.1875 -8.71875 L 0.96875 -11.015625 L 1.265625 -13.71875 L 1.5625 -15.015625 L 2.3125 -16.78125 L 2.90625 -17.703125 L 3.734375 -18.78125 L 5.078125 -20.03125 L 5.96875 -20.71875 L 8.28125 -21.859375 L 11.328125 -22.5 L 13.28125 -22.5 L 13.90625 -22.40625 L 14.5 -22.390625 L 17.53125 -21.40625 L 19.6875 -20.09375 L 20.578125 -19.203125 L 20.921875 -18.59375 L 21.390625 -18.078125 L 21.671875 -17.578125 L 22.015625 -17.078125 L 22.21875 -16.4375 L 22.4375 -15.859375 L 22.640625 -15.171875 L 22.4375 -14.546875 L 21.90625 -14.28125 L 20.953125 -14.171875 L 20.078125 -14.265625 L 19.453125 -14.21875 L 18.796875 -14.25 L 18.21875 -14.171875 L 17.5 -14.5 L 16.890625 -15.09375 L 16.546875 -15.5625 L 15.625 -16.46875 L 15.171875 -16.796875 L 14.59375 -17.015625 L 13.625 -17.28125 L 12.265625 -17.328125 L 10.171875 -17.015625 L 9.328125 -16.53125 L 8.578125 -15.9375 L 7.84375 -15.03125 L 7.546875 -14.4375 L 7.09375 -13.296875 L 6.875 -12.03125 L 6.890625 -10.125 L 7 -9.421875 L 7.171875 -8.859375 L 7.40625 -8.4375 L 7.625 -7.8125 L 8.328125 -6.703125 L 9.25 -5.90625 L 10.359375 -5.359375 L 11.5 -4.96875 L 12.40625 -4.890625 L 14.078125 -5 L 15.15625 -5.609375 L 15.640625 -5.8125 L 16.140625 -6.25 L 16.84375 -7.078125 L 17.15625 -7.6875 L 17.640625 -8.1875 L 18.359375 -8.578125 L 19 -8.5625 L 19.625 -8.59375 L 20.25 -8.515625 L 22.015625 -8.65625 L 22.640625 -8.265625 L 22.84375 -7.703125 L 22.0625 -5.296875 L 21.421875 -4.15625 L 20.6875 -3.203125 L 19.828125 -2.3125 L 18.296875 -1.1875 L 17.765625 -0.921875 L 17.125 -0.703125 L 16.5625 -0.375 L 14.703125 0.015625 L 12.5 0.203125 Z M 10.9375 0.09375 "/></g></g></g><g fill="#2b8eb4" fill-opacity="1"><g transform="translate(187.289555, 290.424836)"><g><path d="M 12.578125 0.71875 L 10.703125 0.578125 L 8.0625 -0.265625 L 7.46875 -0.53125 L 5.359375 -1.71875 L 4.96875 -2.203125 L 4.09375 -3.0625 L 2.671875 -5.125 L 2.375 -5.6875 L 2.203125 -6.359375 L 1.765625 -7.4375 L 1.453125 -9.421875 L 1.671875 -13.078125 L 1.984375 -14.40625 L 2.609375 -16.125 L 2.90625 -16.65625 L 4.015625 -18.1875 L 4.890625 -19.125 L 5.90625 -19.78125 L 6.359375 -20.140625 L 8 -21.109375 L 9.1875 -21.40625 L 9.765625 -21.640625 L 10.390625 -21.8125 L 11.03125 -21.921875 L 13.21875 -21.984375 L 14.703125 -21.921875 L 18.78125 -20.515625 L 20.359375 -19.484375 L 21.6875 -18.234375 L 22.09375 -17.640625 L 22.453125 -17.25 L 22.84375 -16.71875 L 23.046875 -16.140625 L 23.578125 -15.078125 L 23.703125 -14.359375 L 23.9375 -13.703125 L 24.15625 -12.53125 L 24.265625 -10.359375 L 24.046875 -8.15625 L 23.90625 -7.46875 L 23.703125 -6.984375 L 23.59375 -6.34375 L 23.375 -5.75 L 22.109375 -3.609375 L 21.6875 -3.0625 L 19.421875 -1.015625 L 16.59375 0.171875 L 15.390625 0.515625 Z M 11.84375 -4.828125 L 13.671875 -4.84375 L 14.28125 -4.984375 L 14.84375 -5.03125 L 15.34375 -5.296875 L 15.9375 -5.53125 L 16.921875 -6.265625 L 17.3125 -6.828125 L 17.609375 -7.296875 L 17.953125 -7.75 L 18.265625 -9.03125 L 18.5 -10.59375 L 18.40625 -11.953125 L 18.203125 -12.53125 L 18.03125 -13.15625 L 17.796875 -13.734375 L 17.109375 -14.8125 L 16.15625 -15.5625 L 14.5 -16.328125 L 12.984375 -16.46875 L 11.546875 -16.375 L 10.890625 -16.234375 L 10.296875 -15.96875 L 9.375 -15.34375 L 8.90625 -14.953125 L 8.484375 -14.46875 L 8.1875 -13.9375 L 7.796875 -13.515625 L 7.59375 -12.953125 L 7.328125 -11.796875 L 7.28125 -10.859375 L 7.40625 -9.265625 L 7.96875 -7.5 L 8.359375 -7.0625 L 8.65625 -6.59375 L 9.609375 -5.734375 L 10.671875 -5.140625 L 11.234375 -5.0625 Z M 11.84375 -4.828125 "/></g></g></g><g fill="#2b8eb4" fill-opacity="1"><g transform="translate(213.637942, 291.132159)"><g><path d="M 18.53125 0.65625 L 18.09375 0.21875 L 17.34375 -0.75 L 12.765625 -5.875 L 12.265625 -6.25 L 11.890625 -6.765625 L 9.8125 -9.03125 L 9.4375 -9.609375 L 9.03125 -9.796875 L 8.78125 -9.25 L 8.6875 -8.640625 L 8.140625 -0.703125 L 7.765625 0.25 L 7.109375 0.515625 L 6.453125 0.515625 L 5.234375 0.34375 L 4.546875 0.359375 L 3.265625 0.203125 L 2.625 -0.046875 L 2.375 -0.65625 L 2.484375 -3.3125 L 2.59375 -3.875 L 2.859375 -9.046875 L 2.984375 -9.5625 L 3 -10.875 L 3.0625 -11.375 L 3.6875 -20.875 L 4 -21.46875 L 4.734375 -21.734375 L 5.640625 -21.453125 L 6.359375 -21.015625 L 6.796875 -20.625 L 12.578125 -13.984375 L 13.40625 -13.25 L 15.5 -10.859375 L 15.953125 -10.609375 L 16.171875 -11.140625 L 16.59375 -16.75 L 16.578125 -17.453125 L 16.75 -18.75 L 16.6875 -19.265625 L 16.765625 -19.921875 L 17.171875 -20.5625 L 17.78125 -20.875 L 21.65625 -20.65625 L 22.265625 -20.265625 L 22.53125 -19.609375 L 22.34375 -15.25 L 22.203125 -14.515625 L 22 -11.390625 L 22.0625 -10.84375 L 21.265625 0.578125 L 20.921875 1.1875 L 20.21875 1.359375 L 19.34375 1.21875 Z M 18.53125 0.65625 "/></g></g></g><g fill="#2b8eb4" fill-opacity="1"><g transform="translate(238.44733, 292.749945)"><g><path d="M 18.484375 1.359375 L 18.0625 0.90625 L 17.34375 -0.09375 L 13 -5.390625 L 12.5 -5.796875 L 12.140625 -6.328125 L 10.140625 -8.65625 L 9.78125 -9.25 L 9.390625 -9.4375 L 9.125 -8.921875 L 9 -8.296875 L 8.15625 -0.390625 L 7.75 0.546875 L 7.09375 0.78125 L 6.421875 0.75 L 5.21875 0.53125 L 4.53125 0.53125 L 3.25 0.328125 L 2.609375 0.046875 L 2.390625 -0.578125 L 2.59375 -3.203125 L 2.71875 -3.796875 L 3.1875 -8.921875 L 3.328125 -9.453125 L 3.40625 -10.734375 L 3.484375 -11.265625 L 4.453125 -20.734375 L 4.796875 -21.3125 L 5.546875 -21.546875 L 6.46875 -21.234375 L 7.140625 -20.765625 L 7.578125 -20.34375 L 13.09375 -13.5 L 13.90625 -12.71875 L 15.890625 -10.28125 L 16.34375 -10.015625 L 16.578125 -10.53125 L 17.21875 -16.109375 L 17.21875 -16.8125 L 17.453125 -18.109375 L 17.40625 -18.625 L 17.5 -19.265625 L 17.9375 -19.90625 L 18.5625 -20.1875 L 22.421875 -19.828125 L 23.015625 -19.421875 L 23.265625 -18.75 L 22.90625 -14.390625 L 22.75 -13.671875 L 22.421875 -10.5625 L 22.46875 -10.015625 L 21.234375 1.375 L 20.859375 1.96875 L 20.15625 2.125 L 19.296875 1.9375 Z M 18.484375 1.359375 "/></g></g></g><g fill="#2b8eb4" fill-opacity="1"><g transform="translate(263.215812, 295.350829)"><g><path d="M 10.828125 1.5625 L 10.21875 1.421875 L 9.5625 1.40625 L 8.859375 1.265625 L 8.296875 1.0625 L 7 0.984375 L 6.4375 0.875 L 5.75 0.84375 L 3.515625 0.515625 L 2.625 -0.015625 L 2.515625 -0.890625 L 2.546875 -1.59375 L 2.921875 -3.71875 L 2.921875 -4.359375 L 3.0625 -4.953125 L 3.78125 -9.984375 L 3.765625 -10.5625 L 4.140625 -13.109375 L 4.28125 -13.6875 L 4.28125 -14.34375 L 4.75 -17.40625 L 4.75 -18.09375 L 5.015625 -19.359375 L 5.125 -20.546875 L 5.546875 -21.15625 L 6.234375 -21.328125 L 6.84375 -21.203125 L 7.484375 -21.1875 L 8.03125 -21.046875 L 8.65625 -21.09375 L 9.25 -20.90625 L 11.8125 -20.625 L 12.421875 -20.484375 L 12.96875 -20.4375 L 13.578125 -20.28125 L 14.265625 -20.265625 L 16.796875 -19.953125 L 17.328125 -19.75 L 17.984375 -19.65625 L 18.59375 -19.3125 L 18.796875 -18.6875 L 18.609375 -16.8125 L 18.484375 -16.1875 L 18.4375 -15.5625 L 18.046875 -15.046875 L 17.328125 -14.765625 L 16.71875 -14.8125 L 12.296875 -15.484375 L 11.671875 -15.4375 L 11.09375 -15.546875 L 10.375 -15.390625 L 10.015625 -14.859375 L 9.875 -13.875 L 10 -12.875 L 10.609375 -12.515625 L 12.4375 -12.328125 L 13.71875 -12.0625 L 14.390625 -12.03125 L 16.234375 -11.78125 L 16.875 -11.28125 L 17.0625 -10.359375 L 16.59375 -7.5625 L 16.296875 -6.984375 L 15.625 -6.8125 L 14.9375 -6.9375 L 14.296875 -6.96875 L 13.015625 -7.171875 L 11.84375 -7.265625 L 10.84375 -7.5 L 9.90625 -7.59375 L 9.3125 -7.328125 L 8.9375 -6.703125 L 8.671875 -4.75 L 8.84375 -4.15625 L 9.453125 -3.765625 L 10.140625 -3.734375 L 10.734375 -3.546875 L 11.421875 -3.484375 L 12.03125 -3.34375 L 13.078125 -3.328125 L 14.65625 -3.078125 L 15.234375 -2.90625 L 15.953125 -2.875 L 16.59375 -2.5 L 16.828125 -1.828125 L 16.40625 1.328125 L 15.984375 1.921875 L 15.28125 2.109375 Z M 10.828125 1.5625 "/></g></g></g><g fill="#2b8eb4" fill-opacity="1"><g transform="translate(282.263566, 297.914732)"><g><path d="M 10.734375 2.09375 L 10.171875 1.953125 L 9.609375 1.734375 L 9.03125 1.40625 L 8.5 1.1875 L 7.203125 0.375 L 6 -0.578125 L 4.8125 -2.015625 L 3.765625 -3.59375 L 2.890625 -6.515625 L 2.765625 -8.359375 L 2.953125 -10.65625 L 3.734375 -13.265625 L 4.25 -14.46875 L 5.328125 -16.09375 L 6.0625 -16.875 L 7.078125 -17.796875 L 8.625 -18.765625 L 9.625 -19.296875 L 12.109375 -20 L 15.203125 -20.078125 L 17.140625 -19.71875 L 17.734375 -19.515625 L 18.328125 -19.390625 L 21.125 -17.875 L 23 -16.1875 L 23.71875 -15.15625 L 23.953125 -14.484375 L 24.296875 -13.890625 L 24.5 -13.34375 L 24.765625 -12.8125 L 24.84375 -12.125 L 24.9375 -11.515625 L 25.015625 -10.796875 L 24.6875 -10.21875 L 24.140625 -10.0625 L 23.1875 -10.125 L 22.34375 -10.375 L 21.703125 -10.453125 L 21.078125 -10.59375 L 20.484375 -10.625 L 19.84375 -11.09375 L 19.34375 -11.765625 L 19.09375 -12.296875 L 18.359375 -13.34375 L 17.96875 -13.765625 L 17.4375 -14.078125 L 16.53125 -14.515625 L 15.21875 -14.796875 L 13.109375 -14.890625 L 12.171875 -14.5625 L 11.328125 -14.109375 L 10.453125 -13.34375 L 10.03125 -12.828125 L 9.375 -11.796875 L 8.9375 -10.578125 L 8.625 -8.703125 L 8.59375 -7.984375 L 8.65625 -7.40625 L 8.8125 -6.9375 L 8.921875 -6.296875 L 9.40625 -5.078125 L 10.15625 -4.140625 L 11.15625 -3.390625 L 12.203125 -2.8125 L 13.09375 -2.5625 L 14.75 -2.375 L 15.921875 -2.765625 L 16.4375 -2.875 L 17 -3.203125 L 17.859375 -3.90625 L 18.25 -4.4375 L 18.84375 -4.859375 L 19.609375 -5.09375 L 20.234375 -4.953125 L 20.859375 -4.890625 L 21.453125 -4.6875 L 23.21875 -4.515625 L 23.765625 -4.015625 L 23.859375 -3.421875 L 22.65625 -1.203125 L 21.8125 -0.1875 L 20.921875 0.609375 L 19.921875 1.328125 L 18.203125 2.15625 L 17.640625 2.3125 L 16.953125 2.40625 L 16.359375 2.625 L 14.46875 2.6875 L 12.265625 2.484375 Z M 10.734375 2.09375 "/></g></g></g><g fill="#2b8eb4" fill-opacity="1"><g transform="translate(307.080837, 302.222704)"><g><path d="M 8.015625 1.703125 L 7.09375 1.484375 L 6.25 0.984375 L 5.96875 0.234375 L 6.15625 -0.34375 L 6.5625 -2.125 L 6.625 -2.78125 L 7.171875 -5.25 L 7.359375 -5.875 L 8.203125 -10.46875 L 8.4375 -11.3125 L 8.546875 -11.9375 L 8.703125 -12.625 L 8.828125 -13.484375 L 9.09375 -14.46875 L 8.890625 -15.140625 L 8.359375 -15.578125 L 5.453125 -16.234375 L 4.828125 -16.296875 L 4.328125 -16.71875 L 4.15625 -17.328125 L 4.296875 -18.296875 L 4.671875 -19.8125 L 4.765625 -20.453125 L 5.28125 -21.09375 L 5.9375 -21.265625 L 8.0625 -20.703125 L 9.046875 -20.59375 L 10.828125 -20.140625 L 11.40625 -20.140625 L 12.078125 -19.9375 L 12.75 -19.90625 L 13.3125 -19.75 L 13.90625 -19.5 L 16.421875 -19.109375 L 16.984375 -18.9375 L 17.671875 -18.890625 L 18.25 -18.71875 L 20.15625 -18.3125 L 20.65625 -17.8125 L 20.859375 -17.109375 L 20.234375 -14.203125 L 19.71875 -13.59375 L 19.140625 -13.359375 L 18.578125 -13.515625 L 17.921875 -13.546875 L 16.8125 -13.9375 L 15.59375 -14.125 L 14.9375 -13.875 L 14.5 -13 L 13.859375 -10.34375 L 13.828125 -9.671875 L 12.75 -4.75 L 12.703125 -4.046875 L 12.515625 -3.484375 L 12.296875 -2.265625 L 12.109375 -1.625 L 11.953125 -0.4375 L 11.53125 1.15625 L 11.046875 1.9375 L 10.109375 2.078125 Z M 8.015625 1.703125 "/></g></g></g><g fill="#f02e2c" fill-opacity="1"><g transform="translate(67.160122, 323.375134)"><g><path d="M 0.953125 -13.21875 L 5.6875 -13.21875 C 6.957031 -13.21875 7.992188 -12.875 8.796875 -12.1875 C 9.597656 -11.507812 10 -10.539062 10 -9.28125 C 10 -8.3125 9.753906 -7.5 9.265625 -6.84375 C 8.773438 -6.1875 8.113281 -5.726562 7.28125 -5.46875 L 11.828125 0 L 8 0 L 3.96875 -5.21875 L 3.96875 0 L 0.953125 0 Z M 3.96875 -7.34375 L 4.328125 -7.34375 C 4.597656 -7.34375 4.828125 -7.347656 5.015625 -7.359375 C 5.210938 -7.378906 5.429688 -7.421875 5.671875 -7.484375 C 5.921875 -7.546875 6.117188 -7.632812 6.265625 -7.75 C 6.421875 -7.863281 6.550781 -8.03125 6.65625 -8.25 C 6.769531 -8.476562 6.828125 -8.753906 6.828125 -9.078125 C 6.828125 -9.398438 6.769531 -9.671875 6.65625 -9.890625 C 6.550781 -10.117188 6.421875 -10.289062 6.265625 -10.40625 C 6.117188 -10.53125 5.921875 -10.625 5.671875 -10.6875 C 5.429688 -10.75 5.210938 -10.785156 5.015625 -10.796875 C 4.828125 -10.804688 4.597656 -10.8125 4.328125 -10.8125 L 3.96875 -10.8125 Z M 3.96875 -7.34375 "/></g></g></g><g fill="#f02e2c" fill-opacity="1"><g transform="translate(82.62635, 323.375134)"><g><path d="M 8.515625 -13.21875 L 8.515625 -10.5625 L 3.96875 -10.5625 L 3.96875 -7.9375 L 8.328125 -7.9375 L 8.328125 -5.296875 L 3.96875 -5.296875 L 3.96875 -2.640625 L 8.515625 -2.640625 L 8.515625 0 L 0.953125 0 L 0.953125 -13.21875 Z M 8.515625 -13.21875 "/></g></g></g><g fill="#f02e2c" fill-opacity="1"><g transform="translate(95.915523, 323.375134)"><g><path d="M 3.96875 -13.21875 L 3.96875 0 L 0.953125 0 L 0.953125 -13.21875 Z M 3.96875 -13.21875 "/></g></g></g><g fill="#f02e2c" fill-opacity="1"><g transform="translate(104.850586, 323.375134)"><g><path d="M 3.96875 -8.203125 L 3.96875 0 L 0.953125 0 L 0.953125 -13.21875 L 3.96875 -13.21875 L 9.21875 -5.015625 L 9.25 -5.015625 L 9.25 -13.21875 L 12.265625 -13.21875 L 12.265625 0 L 9.25 0 L 4 -8.203125 Z M 3.96875 -8.203125 "/></g></g></g><g fill="#f02e2c" fill-opacity="1"><g transform="translate(122.077671, 323.375134)"><g><path d="M 3.96875 -13.21875 L 3.96875 0 L 0.953125 0 L 0.953125 -13.21875 Z M 3.96875 -13.21875 "/></g></g></g><g fill="#f02e2c" fill-opacity="1"><g transform="translate(131.012736, 323.375134)"><g><path d="M 12.90625 -7.40625 L 12.90625 -4.53125 C 12.5625 -2.957031 11.8125 -1.769531 10.65625 -0.96875 C 9.507812 -0.164062 8.226562 0.234375 6.8125 0.234375 C 5.019531 0.234375 3.5 -0.429688 2.25 -1.765625 C 1 -3.097656 0.375 -4.707031 0.375 -6.59375 C 0.375 -8.519531 0.984375 -10.144531 2.203125 -11.46875 C 3.429688 -12.789062 4.96875 -13.453125 6.8125 -13.453125 C 8.957031 -13.453125 10.65625 -12.695312 11.90625 -11.1875 L 9.921875 -9.03125 C 9.222656 -10.164062 8.242188 -10.734375 6.984375 -10.734375 C 6.054688 -10.734375 5.265625 -10.328125 4.609375 -9.515625 C 3.953125 -8.710938 3.625 -7.738281 3.625 -6.59375 C 3.625 -5.476562 3.953125 -4.519531 4.609375 -3.71875 C 5.265625 -2.925781 6.054688 -2.53125 6.984375 -2.53125 C 7.753906 -2.53125 8.421875 -2.757812 8.984375 -3.21875 C 9.554688 -3.6875 9.84375 -4.304688 9.84375 -5.078125 L 6.8125 -5.078125 L 6.8125 -7.40625 Z M 12.90625 -7.40625 "/></g></g></g><g fill="#f02e2c" fill-opacity="1"><g transform="translate(148.287855, 323.375134)"><g><path d="M 11.109375 -13.21875 L 11.109375 -4.6875 C 11.109375 -3.070312 10.671875 -1.847656 9.796875 -1.015625 C 8.921875 -0.179688 7.640625 0.234375 5.953125 0.234375 C 4.265625 0.234375 2.984375 -0.179688 2.109375 -1.015625 C 1.234375 -1.847656 0.796875 -3.070312 0.796875 -4.6875 L 0.796875 -13.21875 L 3.8125 -13.21875 L 3.8125 -5.578125 C 3.8125 -4.503906 3.976562 -3.757812 4.3125 -3.34375 C 4.65625 -2.925781 5.203125 -2.71875 5.953125 -2.71875 C 6.710938 -2.71875 7.257812 -2.925781 7.59375 -3.34375 C 7.9375 -3.757812 8.109375 -4.503906 8.109375 -5.578125 L 8.109375 -13.21875 Z M 11.109375 -13.21875 "/></g></g></g><g fill="#f02e2c" fill-opacity="1"><g transform="translate(164.202306, 323.375134)"><g><path d="M 3.96875 -8.203125 L 3.96875 0 L 0.953125 0 L 0.953125 -13.21875 L 3.96875 -13.21875 L 9.21875 -5.015625 L 9.25 -5.015625 L 9.25 -13.21875 L 12.265625 -13.21875 L 12.265625 0 L 9.25 0 L 4 -8.203125 Z M 3.96875 -8.203125 "/></g></g></g><g fill="#f02e2c" fill-opacity="1"><g transform="translate(181.429394, 323.375134)"><g><path d="M 12.90625 -7.40625 L 12.90625 -4.53125 C 12.5625 -2.957031 11.8125 -1.769531 10.65625 -0.96875 C 9.507812 -0.164062 8.226562 0.234375 6.8125 0.234375 C 5.019531 0.234375 3.5 -0.429688 2.25 -1.765625 C 1 -3.097656 0.375 -4.707031 0.375 -6.59375 C 0.375 -8.519531 0.984375 -10.144531 2.203125 -11.46875 C 3.429688 -12.789062 4.96875 -13.453125 6.8125 -13.453125 C 8.957031 -13.453125 10.65625 -12.695312 11.90625 -11.1875 L 9.921875 -9.03125 C 9.222656 -10.164062 8.242188 -10.734375 6.984375 -10.734375 C 6.054688 -10.734375 5.265625 -10.328125 4.609375 -9.515625 C 3.953125 -8.710938 3.625 -7.738281 3.625 -6.59375 C 3.625 -5.476562 3.953125 -4.519531 4.609375 -3.71875 C 5.265625 -2.925781 6.054688 -2.53125 6.984375 -2.53125 C 7.753906 -2.53125 8.421875 -2.757812 8.984375 -3.21875 C 9.554688 -3.6875 9.84375 -4.304688 9.84375 -5.078125 L 6.8125 -5.078125 L 6.8125 -7.40625 Z M 12.90625 -7.40625 "/></g></g></g><g fill="#f02e2c" fill-opacity="1"><g transform="translate(198.704512, 323.375134)"><g><path d="M 5.828125 -13.453125 C 6.546875 -13.453125 7.242188 -13.347656 7.921875 -13.140625 C 8.609375 -12.929688 9.117188 -12.726562 9.453125 -12.53125 L 9.921875 -12.203125 L 8.71875 -9.796875 C 8.613281 -9.859375 8.476562 -9.941406 8.3125 -10.046875 C 8.144531 -10.148438 7.820312 -10.285156 7.34375 -10.453125 C 6.875 -10.628906 6.4375 -10.71875 6.03125 -10.71875 C 5.53125 -10.71875 5.144531 -10.609375 4.875 -10.390625 C 4.601562 -10.179688 4.46875 -9.894531 4.46875 -9.53125 C 4.46875 -9.34375 4.53125 -9.171875 4.65625 -9.015625 C 4.789062 -8.867188 5.007812 -8.707031 5.3125 -8.53125 C 5.625 -8.351562 5.894531 -8.207031 6.125 -8.09375 C 6.363281 -7.988281 6.726562 -7.832031 7.21875 -7.625 C 8.070312 -7.257812 8.800781 -6.765625 9.40625 -6.140625 C 10.007812 -5.515625 10.3125 -4.804688 10.3125 -4.015625 C 10.3125 -3.253906 10.175781 -2.59375 9.90625 -2.03125 C 9.632812 -1.46875 9.257812 -1.023438 8.78125 -0.703125 C 8.3125 -0.378906 7.785156 -0.144531 7.203125 0 C 6.628906 0.15625 6.003906 0.234375 5.328125 0.234375 C 4.753906 0.234375 4.1875 0.175781 3.625 0.0625 C 3.070312 -0.0507812 2.609375 -0.195312 2.234375 -0.375 C 1.867188 -0.550781 1.535156 -0.722656 1.234375 -0.890625 C 0.929688 -1.066406 0.710938 -1.210938 0.578125 -1.328125 L 0.375 -1.5 L 1.875 -4.03125 C 2 -3.925781 2.171875 -3.789062 2.390625 -3.625 C 2.617188 -3.457031 3.019531 -3.234375 3.59375 -2.953125 C 4.164062 -2.679688 4.671875 -2.546875 5.109375 -2.546875 C 6.378906 -2.546875 7.015625 -2.976562 7.015625 -3.84375 C 7.015625 -4.019531 6.96875 -4.1875 6.875 -4.34375 C 6.789062 -4.5 6.628906 -4.65625 6.390625 -4.8125 C 6.160156 -4.96875 5.957031 -5.085938 5.78125 -5.171875 C 5.613281 -5.265625 5.328125 -5.40625 4.921875 -5.59375 C 4.523438 -5.78125 4.226562 -5.921875 4.03125 -6.015625 C 3.226562 -6.410156 2.609375 -6.90625 2.171875 -7.5 C 1.734375 -8.09375 1.515625 -8.734375 1.515625 -9.421875 C 1.515625 -10.597656 1.953125 -11.5625 2.828125 -12.3125 C 3.703125 -13.070312 4.703125 -13.453125 5.828125 -13.453125 Z M 5.828125 -13.453125 "/></g></g></g><g fill="#f02e2c" fill-opacity="1"><g transform="translate(213.466406, 323.375134)"><g><path d="M 5.828125 -13.453125 C 6.546875 -13.453125 7.242188 -13.347656 7.921875 -13.140625 C 8.609375 -12.929688 9.117188 -12.726562 9.453125 -12.53125 L 9.921875 -12.203125 L 8.71875 -9.796875 C 8.613281 -9.859375 8.476562 -9.941406 8.3125 -10.046875 C 8.144531 -10.148438 7.820312 -10.285156 7.34375 -10.453125 C 6.875 -10.628906 6.4375 -10.71875 6.03125 -10.71875 C 5.53125 -10.71875 5.144531 -10.609375 4.875 -10.390625 C 4.601562 -10.179688 4.46875 -9.894531 4.46875 -9.53125 C 4.46875 -9.34375 4.53125 -9.171875 4.65625 -9.015625 C 4.789062 -8.867188 5.007812 -8.707031 5.3125 -8.53125 C 5.625 -8.351562 5.894531 -8.207031 6.125 -8.09375 C 6.363281 -7.988281 6.726562 -7.832031 7.21875 -7.625 C 8.070312 -7.257812 8.800781 -6.765625 9.40625 -6.140625 C 10.007812 -5.515625 10.3125 -4.804688 10.3125 -4.015625 C 10.3125 -3.253906 10.175781 -2.59375 9.90625 -2.03125 C 9.632812 -1.46875 9.257812 -1.023438 8.78125 -0.703125 C 8.3125 -0.378906 7.785156 -0.144531 7.203125 0 C 6.628906 0.15625 6.003906 0.234375 5.328125 0.234375 C 4.753906 0.234375 4.1875 0.175781 3.625 0.0625 C 3.070312 -0.0507812 2.609375 -0.195312 2.234375 -0.375 C 1.867188 -0.550781 1.535156 -0.722656 1.234375 -0.890625 C 0.929688 -1.066406 0.710938 -1.210938 0.578125 -1.328125 L 0.375 -1.5 L 1.875 -4.03125 C 2 -3.925781 2.171875 -3.789062 2.390625 -3.625 C 2.617188 -3.457031 3.019531 -3.234375 3.59375 -2.953125 C 4.164062 -2.679688 4.671875 -2.546875 5.109375 -2.546875 C 6.378906 -2.546875 7.015625 -2.976562 7.015625 -3.84375 C 7.015625 -4.019531 6.96875 -4.1875 6.875 -4.34375 C 6.789062 -4.5 6.628906 -4.65625 6.390625 -4.8125 C 6.160156 -4.96875 5.957031 -5.085938 5.78125 -5.171875 C 5.613281 -5.265625 5.328125 -5.40625 4.921875 -5.59375 C 4.523438 -5.78125 4.226562 -5.921875 4.03125 -6.015625 C 3.226562 -6.410156 2.609375 -6.90625 2.171875 -7.5 C 1.734375 -8.09375 1.515625 -8.734375 1.515625 -9.421875 C 1.515625 -10.597656 1.953125 -11.5625 2.828125 -12.3125 C 3.703125 -13.070312 4.703125 -13.453125 5.828125 -13.453125 Z M 5.828125 -13.453125 "/></g></g></g><g fill="#f02e2c" fill-opacity="1"><g transform="translate(228.228299, 323.375134)"><g><path d="M 8.515625 -13.21875 L 8.515625 -10.5625 L 3.96875 -10.5625 L 3.96875 -7.9375 L 8.328125 -7.9375 L 8.328125 -5.296875 L 3.96875 -5.296875 L 3.96875 -2.640625 L 8.515625 -2.640625 L 8.515625 0 L 0.953125 0 L 0.953125 -13.21875 Z M 8.515625 -13.21875 "/></g></g></g><g fill="#f02e2c" fill-opacity="1"><g transform="translate(241.517476, 323.375134)"><g><path d="M 0.953125 -13.21875 L 5.6875 -13.21875 C 6.957031 -13.21875 7.992188 -12.875 8.796875 -12.1875 C 9.597656 -11.507812 10 -10.539062 10 -9.28125 C 10 -8.3125 9.753906 -7.5 9.265625 -6.84375 C 8.773438 -6.1875 8.113281 -5.726562 7.28125 -5.46875 L 11.828125 0 L 8 0 L 3.96875 -5.21875 L 3.96875 0 L 0.953125 0 Z M 3.96875 -7.34375 L 4.328125 -7.34375 C 4.597656 -7.34375 4.828125 -7.347656 5.015625 -7.359375 C 5.210938 -7.378906 5.429688 -7.421875 5.671875 -7.484375 C 5.921875 -7.546875 6.117188 -7.632812 6.265625 -7.75 C 6.421875 -7.863281 6.550781 -8.03125 6.65625 -8.25 C 6.769531 -8.476562 6.828125 -8.753906 6.828125 -9.078125 C 6.828125 -9.398438 6.769531 -9.671875 6.65625 -9.890625 C 6.550781 -10.117188 6.421875 -10.289062 6.265625 -10.40625 C 6.117188 -10.53125 5.921875 -10.625 5.671875 -10.6875 C 5.429688 -10.75 5.210938 -10.785156 5.015625 -10.796875 C 4.828125 -10.804688 4.597656 -10.8125 4.328125 -10.8125 L 3.96875 -10.8125 Z M 3.96875 -7.34375 "/></g></g></g><g fill="#f02e2c" fill-opacity="1"><g transform="translate(256.983707, 323.375134)"><g><path d="M 5.09375 0 L -0.453125 -13.21875 L 2.953125 -13.21875 L 6.28125 -4.53125 L 9.609375 -13.21875 L 13 -13.21875 L 7.46875 0 Z M 5.09375 0 "/></g></g></g><g fill="#f02e2c" fill-opacity="1"><g transform="translate(273.538466, 323.375134)"><g><path d="M 3.96875 -13.21875 L 3.96875 0 L 0.953125 0 L 0.953125 -13.21875 Z M 3.96875 -13.21875 "/></g></g></g><g fill="#f02e2c" fill-opacity="1"><g transform="translate(282.473531, 323.375134)"><g><path d="M 7.984375 -2.71875 C 8.453125 -2.71875 8.898438 -2.785156 9.328125 -2.921875 C 9.765625 -3.066406 10.082031 -3.203125 10.28125 -3.328125 L 10.59375 -3.546875 L 11.875 -0.984375 C 11.820312 -0.941406 11.757812 -0.894531 11.6875 -0.84375 C 11.613281 -0.789062 11.441406 -0.691406 11.171875 -0.546875 C 10.898438 -0.410156 10.609375 -0.285156 10.296875 -0.171875 C 9.984375 -0.0664062 9.578125 0.0234375 9.078125 0.109375 C 8.578125 0.191406 8.0625 0.234375 7.53125 0.234375 C 6.300781 0.234375 5.132812 -0.0625 4.03125 -0.65625 C 2.9375 -1.257812 2.050781 -2.085938 1.375 -3.140625 C 0.707031 -4.203125 0.375 -5.347656 0.375 -6.578125 C 0.375 -7.503906 0.566406 -8.394531 0.953125 -9.25 C 1.347656 -10.101562 1.875 -10.832031 2.53125 -11.4375 C 3.1875 -12.050781 3.953125 -12.539062 4.828125 -12.90625 C 5.710938 -13.269531 6.613281 -13.453125 7.53125 -13.453125 C 8.382812 -13.453125 9.171875 -13.347656 9.890625 -13.140625 C 10.609375 -12.941406 11.117188 -12.742188 11.421875 -12.546875 L 11.875 -12.234375 L 10.59375 -9.671875 C 10.507812 -9.734375 10.394531 -9.8125 10.25 -9.90625 C 10.101562 -10 9.804688 -10.117188 9.359375 -10.265625 C 8.910156 -10.410156 8.453125 -10.484375 7.984375 -10.484375 C 7.265625 -10.484375 6.613281 -10.363281 6.03125 -10.125 C 5.457031 -9.894531 5 -9.585938 4.65625 -9.203125 C 4.320312 -8.816406 4.066406 -8.398438 3.890625 -7.953125 C 3.722656 -7.515625 3.640625 -7.066406 3.640625 -6.609375 C 3.640625 -5.609375 4.015625 -4.707031 4.765625 -3.90625 C 5.515625 -3.113281 6.585938 -2.71875 7.984375 -2.71875 Z M 7.984375 -2.71875 "/></g></g></g><g fill="#f02e2c" fill-opacity="1"><g transform="translate(298.53204, 323.375134)"><g><path d="M 8.515625 -13.21875 L 8.515625 -10.5625 L 3.96875 -10.5625 L 3.96875 -7.9375 L 8.328125 -7.9375 L 8.328125 -5.296875 L 3.96875 -5.296875 L 3.96875 -2.640625 L 8.515625 -2.640625 L 8.515625 0 L 0.953125 0 L 0.953125 -13.21875 Z M 8.515625 -13.21875 "/></g></g></g></svg>